<svg width="40" height="40" viewBox="0 0 40 40" fill="none" xmlns="http://www.w3.org/2000/svg">
<rect x="0.5" y="0.5" width="39" height="39" rx="6.5" fill="#F2F9FE"/>
<path d="M6.71476 20.4293C6.62275 20.1528 6.62275 19.8539 6.71476 19.5773C8.5641 14.0133 13.8134 10 20.0001 10C26.1841 10 31.4308 14.0093 33.2841 19.5707C33.3774 19.8467 33.3774 20.1453 33.2841 20.4227C31.4361 25.9867 26.1868 30 20.0001 30C13.8161 30 8.5681 25.9907 6.71476 20.4293Z" stroke="#D7EBF9" stroke-width="1.5" stroke-linecap="round" stroke-linejoin="round"/>
<path d="M25 20C25 21.3261 24.4732 22.5979 23.5355 23.5355C22.5979 24.4732 21.3261 25 20 25C18.6739 25 17.4021 24.4732 16.4645 23.5355C15.5268 22.5979 15 21.3261 15 20C15 18.6739 15.5268 17.4021 16.4645 16.4645C17.4021 15.5268 18.6739 15 20 15C21.3261 15 22.5979 15.5268 23.5355 16.4645C24.4732 17.4021 25 18.6739 25 20Z" stroke="#4AA4E3" stroke-width="1.5" stroke-linecap="round" stroke-linejoin="round"/>
<rect x="0.5" y="0.5" width="39" height="39" rx="6.5" stroke="#4AA4E3"/>
</svg>
