<svg width="40" height="40" viewBox="0 0 40 40" fill="none" xmlns="http://www.w3.org/2000/svg">
<rect x="0.5" y="0.5" width="39" height="39" rx="7.5" fill="#F2F9FE"/>
<path d="M27.3022 16.1675L27 17.375L26.6978 16.1675C26.5249 15.4752 26.167 14.8429 25.6625 14.3382C25.1581 13.8335 24.5259 13.4754 23.8337 13.3022L22.625 13L23.8337 12.6978C24.5259 12.5246 25.1581 12.1665 25.6625 11.6618C26.167 11.1571 26.5249 10.5248 26.6978 9.8325L27 8.625L27.3022 9.8325C27.4752 10.525 27.8332 11.1574 28.3379 11.6621C28.8426 12.1668 29.475 12.5248 30.1675 12.6978L31.375 13L30.1675 13.3022C29.475 13.4752 28.8426 13.8332 28.3379 14.3379C27.8332 14.8426 27.4752 15.475 27.3022 16.1675ZM25.7097 29.9948L25.25 31.375L24.7903 29.9948C24.6615 29.6082 24.4444 29.2569 24.1562 28.9688C23.868 28.6806 23.5168 28.4635 23.1302 28.3347L21.75 27.875L23.1302 27.4153C23.5168 27.2865 23.868 27.0694 24.1562 26.7812C24.4444 26.493 24.6615 26.1418 24.7903 25.7552L25.25 24.375L25.7097 25.7552C25.8385 26.1418 26.0556 26.493 26.3438 26.7812C26.6319 27.0694 26.9832 27.2865 27.3698 27.4153L28.75 27.875L27.3698 28.3347C26.9832 28.4635 26.6319 28.6806 26.3438 28.9688C26.0556 29.2569 25.8385 29.6082 25.7097 29.9948Z" fill="#D7EBF9" stroke="#4AA4E3" stroke-width="1.5" stroke-linecap="round" stroke-linejoin="round"/>
<path d="M16.5 27.875L17.4485 24.5547L17.4497 24.5535C17.6948 23.6958 18.1544 22.9148 18.7852 22.284C18.7852 22.284 20.1166 21.3699 21.0547 20.9485C22.2848 20.3958 24.375 20 24.375 20C24.375 20 22.284 19.6034 21.0535 19.0503C20.1155 18.6288 18.784 17.7148 18.784 17.7148C18.1533 17.0841 17.6936 16.303 17.4485 15.4453L16.5 12.125L15.5503 15.4465C15.3052 16.3042 14.8455 17.0852 14.2148 17.716C13.5841 18.3467 12.803 18.8064 11.9453 19.0515L8.625 20L11.9465 20.9497C12.8042 21.1948 13.5852 21.6544 14.216 22.2852C14.8467 22.9159 15.3064 23.697 15.5515 24.5547L16.5 27.875Z" fill="#D7EBF9" stroke="#4AA4E3" stroke-width="1.5" stroke-linecap="round" stroke-linejoin="round"/>
<rect x="0.5" y="0.5" width="39" height="39" rx="7.5" stroke="#4AA4E3"/>
</svg>
