<svg width="40" height="40" viewBox="0 0 40 40" fill="none" xmlns="http://www.w3.org/2000/svg">
<rect x="0.5" y="0.5" width="39" height="39" rx="7.5" fill="#F2F9FE"/>
<path fill-rule="evenodd" clip-rule="evenodd" d="M21.2603 8.03218C21.4895 8.0953 21.6843 8.24691 21.8017 8.45363C21.9192 8.66036 21.9497 8.90527 21.8866 9.1345L21.1725 11.7274C21.1094 11.9566 20.9578 12.1514 20.751 12.2688C20.5443 12.3863 20.2994 12.4168 20.0702 12.3537C19.8409 12.2906 19.6462 12.139 19.5287 11.9322C19.4113 11.7255 19.3808 11.4806 19.4439 11.2514L20.158 8.65846C20.2211 8.42923 20.3727 8.23447 20.5794 8.11702C20.7861 7.99957 21.031 7.96905 21.2603 8.03218ZM13.0898 9.05022C13.2965 8.933 13.5412 8.90258 13.7702 8.96565C13.9993 9.02873 14.1939 9.18014 14.3114 9.38662L15.6411 11.7253C15.7535 11.9318 15.7804 12.1741 15.7159 12.4001C15.6514 12.6262 15.5008 12.8178 15.2963 12.9339C15.0919 13.0499 14.8501 13.081 14.6229 13.0204C14.3958 12.9599 14.2015 12.8125 14.082 12.6102L12.7531 10.2729C12.6949 10.1705 12.6574 10.0577 12.6429 9.94082C12.6283 9.82395 12.6369 9.70535 12.6681 9.5918C12.6994 9.47825 12.7527 9.37198 12.8251 9.27905C12.8975 9.18613 12.9874 9.10837 13.0898 9.05022ZM8.03242 15.5475C8.09555 15.3183 8.24715 15.1235 8.45388 15.0061C8.6606 14.8886 8.90552 14.8581 9.13474 14.9213L11.7276 15.6353C11.9569 15.6984 12.1516 15.85 12.2691 16.0568C12.3865 16.2635 12.4171 16.5084 12.3539 16.7376C12.2908 16.9669 12.1392 17.1616 11.9325 17.2791C11.7257 17.3965 11.4808 17.427 11.2516 17.3639L8.6587 16.6499C8.42947 16.5867 8.23471 16.4351 8.11726 16.2284C7.99981 16.0217 7.96929 15.7768 8.03242 15.5475Z" fill="#4AA4E3"/>
<path d="M16.7991 17.9374L16.896 17.9283L16.803 16.9468C16.8238 16.8792 16.8502 16.8133 16.8821 16.7496C16.9892 16.5358 17.154 16.3563 17.3579 16.2313C17.5618 16.1063 17.7966 16.0409 18.0357 16.0425C18.2738 16.0441 18.5066 16.1119 18.7082 16.2384C18.7107 16.24 18.7131 16.2415 18.7155 16.2429L18.7303 16.254L18.7535 16.2679L18.8471 16.3237L19.2118 16.5562L19.2118 16.5562L19.2147 16.5581L20.5453 17.3935C20.5454 17.3936 20.5455 17.3936 20.5456 17.3937C23.2621 19.1039 25.9799 20.812 28.6989 22.5183L28.6993 22.5185L30.0863 23.3873L30.0876 23.3881L30.4962 23.6423L30.4962 23.6423L30.4994 23.6443L30.6116 23.7129L30.642 23.7322C30.658 23.7423 30.6745 23.7517 30.6915 23.7601C30.7787 23.8085 30.8578 23.8702 30.926 23.943C30.9654 23.991 31.0004 24.0425 31.0305 24.0969L31.0358 24.1065L31.0416 24.1159L31.0504 24.1304L31.0505 24.1304C31.0977 24.2075 31.1293 24.2931 31.1435 24.3824C31.1577 24.4717 31.1541 24.5628 31.133 24.6507C31.1119 24.7386 31.0737 24.8215 31.0206 24.8946C30.9674 24.9678 30.9004 25.0297 30.8233 25.0769L30.8233 25.077C30.6959 25.155 30.5453 25.1788 30.3988 25.199L30.3986 25.1991L30.3464 25.2063C29.1402 25.3419 27.9333 25.4718 26.7259 25.596L26.7249 25.5961L23.5799 25.9258C23.4284 25.9377 23.2897 26.0163 23.2016 26.1408L23.1948 26.1503L23.1886 26.1602L19.5342 31.8707L19.5222 31.8894L19.52 31.8935C19.4568 31.9922 19.4141 32.0585 19.368 32.1125C19.3192 32.1693 19.2613 32.2177 19.1968 32.2557L19.1813 32.2648L19.1666 32.2749C19.0569 32.3506 18.9275 32.3929 18.7942 32.3966C18.661 32.4003 18.5295 32.3652 18.4157 32.2957C18.302 32.2262 18.2108 32.1251 18.1533 32.0049C18.0989 31.8912 18.0769 31.7649 18.0892 31.6398C18.0939 31.5926 18.0963 31.5355 18.0908 31.4724L18.0907 31.4709L18.079 31.3403L18.0788 31.3373L18.034 30.8681C18.034 30.8681 18.034 30.8681 18.034 30.8681C17.6768 27.1173 17.319 23.3667 16.9606 19.616L16.9606 19.6157L16.8086 18.0371L16.8085 18.0365L16.7991 17.9374ZM30.909 23.3275L30.906 23.333L30.9147 23.3126L30.909 23.3275ZM18.9589 15.866L18.9634 15.8552L18.9792 15.8176L18.9733 15.8347L18.9645 15.8537L18.9589 15.866Z" fill="#D7EBF9" stroke="#4AA4E3"/>
<rect x="0.5" y="0.5" width="39" height="39" rx="7.5" stroke="#4AA4E3"/>
</svg>
