<svg width="40" height="40" viewBox="0 0 40 40" fill="none" xmlns="http://www.w3.org/2000/svg">
<rect x="0.5" y="0.5" width="39" height="39" rx="7.5" fill="#F2F9FE"/>
<path d="M10.6923 10V22.5C10.6923 23.163 10.9598 23.7989 11.4358 24.2678C11.9119 24.7366 12.5575 25 13.2308 25H15.7692M10.6923 10H9H10.6923ZM10.6923 10H29.3077H10.6923ZM29.3077 10H31H29.3077ZM29.3077 10V22.5C29.3077 23.163 29.0402 23.7989 28.5642 24.2678C28.0881 24.7366 27.4425 25 26.7692 25H24.2308M15.7692 25H24.2308H15.7692ZM15.7692 25L14.641 28.3333L15.7692 25ZM24.2308 25L25.359 28.3333L24.2308 25ZM25.359 28.3333L25.9231 30L25.359 28.3333ZM25.359 28.3333H14.641H25.359ZM14.641 28.3333L14.0769 30L14.641 28.3333Z" fill="#D7EBF9"/>
<path d="M10.6923 10V22.5C10.6923 23.163 10.9598 23.7989 11.4358 24.2678C11.9119 24.7366 12.5575 25 13.2308 25H15.7692M10.6923 10H9M10.6923 10H29.3077M15.7692 25H24.2308M15.7692 25L14.641 28.3333M29.3077 10H31M29.3077 10V22.5C29.3077 23.163 29.0402 23.7989 28.5642 24.2678C28.0881 24.7366 27.4425 25 26.7692 25H24.2308M24.2308 25L25.359 28.3333M14.641 28.3333H25.359M14.641 28.3333L14.0769 30M25.359 28.3333L25.9231 30" stroke="#4AA4E3" stroke-width="1.5" stroke-linecap="round" stroke-linejoin="round"/>
<path d="M15 20L18.3333 16.587L20.72 19.0307C21.8413 17.3826 23.3024 16.0066 25 15" stroke="#4AA4E3" stroke-width="1.5" stroke-linecap="round" stroke-linejoin="round"/>
<rect x="0.5" y="0.5" width="39" height="39" rx="7.5" stroke="#4AA4E3"/>
</svg>
